# xmcd
#
# Track frame offsets:
#	150
#	19156
#	32763
#	48824
#	68332
#	87060
#	98324
#	114428
#	146446
#
# Disc length: 2710 seconds
#
# Revision: 2
# Processed by: cddbd v1.5PL3 Copyright (c) Steve Scherf et al.
# Submitted via: audiograbber 1.82.02
#
DISCID=5c0a9409
DTITLE=Ross Daly and Μιχάλης Νικολούδης - Συναπάντημα ( Δίφωνο 97 )
DYEAR=2003
DGENRE=Παραδοσιακό
TTITLE0=Μιχάλης Νικολούδης - Η Κυρά του Κάστρου
TTITLE1=Βασίλης Σκουλάς - Ο ήλιος Θεος
TTITLE2=Σοφία Τσέρου - Ψίθυρος στο αίμα
TTITLE3=Μιχάλης Νικολούδης - Λυκαυγές
TTITLE4=Μιχάλης Νικολούδης - Το πνεύμα της άνοιξης
TTITLE5=Σοφία Τσέρου - Φεγγάρι αργός διαβάτης
TTITLE6=Μιχάλης Νικολούδης - Το στόμα της αλήθειας
TTITLE7=Μιχάλης Νικολούδης - Η πτήση
TTITLE8=Ross Daily - Συναύγεια (μέρος 3ο)
EXTD=YEAR: 2003\nΑποσπάσματα από την Αιολία το Μελισσόκηπο και τη Συνάυγεια\n
EXTD=\n\n\n\n\n\n
EXTT0=Μουσική Μιχάλης Νικολούδης cd Χρησμός
EXTT1=
EXTT2=
EXTT3=
EXTT4=
EXTT5=
EXTT6=
EXTT7=
EXTT8=
PLAYORDER=
